<svg xmlns="http://www.w3.org/2000/svg" xmlns:xlink="http://www.w3.org/1999/xlink" viewBox="0 0 984 984"><defs><linearGradient id="linear-gradient" x1="135.21" y1="56.27" x2="583.64" y2="600.79" gradientUnits="userSpaceOnUse"><stop offset="0" stop-color="#f277f6"/><stop offset="1" stop-color="#7600ae"/></linearGradient><linearGradient id="linear-gradient-2" x1="84.79" y1="210.3" x2="407.76" y2="434.51" gradientUnits="userSpaceOnUse"><stop offset="0" stop-color="#fff"/><stop offset="0.01" stop-color="#f6f6f6"/><stop offset="0.05" stop-color="#c8c8c8"/><stop offset="0.09" stop-color="#9d9d9d"/><stop offset="0.14" stop-color="#777"/><stop offset="0.2" stop-color="#575757"/><stop offset="0.26" stop-color="#3c3c3c"/><stop offset="0.32" stop-color="#262626"/><stop offset="0.4" stop-color="#151515"/><stop offset="0.5" stop-color="#090909"/><stop offset="0.63" stop-color="#020202"/><stop offset="1"/></linearGradient><linearGradient id="linear-gradient-3" x1="937.37" y1="26.64" x2="1017.45" y2="1017.79" gradientUnits="userSpaceOnUse"><stop offset="0" stop-color="#fbff00"/><stop offset="1" stop-color="#ea0c22"/></linearGradient><linearGradient id="linear-gradient-4" x1="892.88" y1="30.23" x2="972.95" y2="1021.39" gradientUnits="userSpaceOnUse"><stop offset="0" stop-color="#eff900"/><stop offset="1" stop-color="#08a700"/></linearGradient><linearGradient id="linear-gradient-5" x1="828.57" y1="35.43" x2="908.64" y2="1026.58" xlink:href="#linear-gradient"/><linearGradient id="linear-gradient-6" x1="762.84" y1="40.74" x2="842.92" y2="1031.89" gradientUnits="userSpaceOnUse"><stop offset="0.01" stop-color="#00ebe8"/><stop offset="1" stop-color="#0067c2"/></linearGradient><linearGradient id="linear-gradient-7" x1="721.92" y1="44.04" x2="801.99" y2="1035.2" gradientUnits="userSpaceOnUse"><stop offset="0" stop-color="#f2336f"/><stop offset="1" stop-color="#8200c5"/></linearGradient><linearGradient id="linear-gradient-8" x1="678.17" y1="47.58" x2="758.25" y2="1038.73" xlink:href="#linear-gradient-7"/><linearGradient id="linear-gradient-9" x1="658.76" y1="49.15" x2="738.84" y2="1040.3" xlink:href="#linear-gradient-3"/><linearGradient id="linear-gradient-10" x1="605.34" y1="53.46" x2="685.42" y2="1044.62" xlink:href="#linear-gradient-3"/><linearGradient id="linear-gradient-11" x1="594.07" y1="54.37" x2="674.14" y2="1045.53" xlink:href="#linear-gradient-4"/><linearGradient id="linear-gradient-12" x1="535.97" y1="59.06" x2="616.04" y2="1050.22" xlink:href="#linear-gradient-4"/><linearGradient id="linear-gradient-13" x1="528.29" y1="59.69" x2="608.37" y2="1050.85" xlink:href="#linear-gradient"/><linearGradient id="linear-gradient-14" x1="468.07" y1="64.55" x2="548.14" y2="1055.71" xlink:href="#linear-gradient"/></defs><g style="isolation:isolate"><g id="Layer_1" data-name="Layer 1"><path d="M976.91,380.63v-.09c-2.18-9-4.63-17.84-7.34-26.68v-.09A489.86,489.86,0,0,0,907.36,223.5c-1.66-2.45-3.33-4.9-5.07-7.35,0-.09-.09-.09-.18-.17a491.83,491.83,0,0,0-62.82-73.32c-1.31-1.31-2.71-2.63-4.2-3.94,0,0,0-.09-.08-.09a487.77,487.77,0,0,0-63.79-50.48c-1.13-.78-2.27-1.57-3.41-2.27h-.08a484.08,484.08,0,0,0-64.05-35.43c-1-.44-2-.88-3-1.32a496.69,496.69,0,0,0-64.66-23.8l-2.62-.78a465,465,0,0,0-55.65-12.08c-3-.61-6-1.05-9-1.48a18.06,18.06,0,0,0-2.45-.35A483.36,483.36,0,0,0,499.22,6H499A489.56,489.56,0,0,0,297.38,49.13h-.09C126.16,126.12,7,298.13,7,498c0,260.37,202.19,473.4,458.1,490.9,11.2.79,22.57,1.14,33.94,1.14h1.23a499.22,499.22,0,0,0,67.1-4.72c5.17-.7,10.24-1.49,15.31-2.45a464.21,464.21,0,0,0,51.8-11.73c5.07-1.4,10.15-3,15.13-4.63,12.87-4.12,25.38-8.67,37.71-13.83,4.81-2,9.54-4,14.26-6.21h.09c4.9-2.19,9.8-4.55,14.7-6.91a491.76,491.76,0,0,0,52.32-29.92.09.09,0,0,0,.09-.09c4.72-3.06,9.44-6.3,14.08-9.54a492.33,492.33,0,0,0,52.93-43.39.09.09,0,0,0,.09-.09c4.55-4.2,9-8.57,13.39-13a488.61,488.61,0,0,0,53.45-64.3l.09-.09v-.17c4.29-6,8.4-12.08,12.25-18.29A484.78,484.78,0,0,0,969.83,641v-.08c3.93-12.78,7.35-26,10.23-39.29v-.09a495.68,495.68,0,0,0-3.15-220.91ZM768.34,554.48v.08a.78.78,0,0,1-.09.44,272.46,272.46,0,0,1-55.73,116.54c-3.5,4.37-7.26,8.66-11.11,12.86a.08.08,0,0,1-.09.08c-1.14,1.23-2.27,2.45-3.5,3.68A269.62,269.62,0,0,1,646.2,730.5c-3.93,2.54-7.87,5-12,7.18a273.67,273.67,0,0,1-54.69,23.62c-4.11,1.23-8.13,2.36-12.33,3.41A278.16,278.16,0,0,1,500,773.2h-1c-8.92,0-17.76-.44-26.42-1.23-86.44-8.22-161.24-56.51-205.69-126.07A273.93,273.93,0,0,1,223.8,498c0-130.28,90.55-239.38,212.16-267.81a270.94,270.94,0,0,1,55.73-7.26c2.45-.09,4.9-.09,7.35-.09h.44a269.25,269.25,0,0,1,67.11,8.4c1.83.44,3.58.87,5.33,1.4a274,274,0,0,1,26.34,8.66A268,268,0,0,1,633.69,258c1.93,1,3.85,2.19,5.78,3.33A278.55,278.55,0,0,1,701,311c2.19,2.36,4.38,4.81,6.47,7.35a273.6,273.6,0,0,1,60.72,122.05c0,.09.09.17.09.26v.09a276.81,276.81,0,0,1,.09,113.74Z" transform="translate(-7 -6)" style="fill:url(#linear-gradient)"/><g style="opacity:0.8;mix-blend-mode:screen"><path d="M959.94,384.74l-.52-2.1c-1.93-7.78-4.12-15.57-6.57-23.62l-.78-2.62a472.9,472.9,0,0,0-59.23-123.1c-1.32-2-2.72-4-4.2-6.13l-.88-1.13a475.24,475.24,0,0,0-60.54-70.78h-.09l-3.59-3.41-5.94-5.52a476.87,476.87,0,0,0-56.09-43.57c-.08-.08-.26-.17-.35-.26l-3.06-2a464.81,464.81,0,0,0-61.68-34.12l-3-1.31a471.33,471.33,0,0,0-62.3-22.93l-2.45-.78A453.41,453.41,0,0,0,575.16,29.8l-.87-.18c-2.63-.52-5.25-.87-7.79-1.31L563.87,28a475.26,475.26,0,0,0-259.32,37.1l-3.5,1.57C132.9,143.88,24.5,312.74,24.5,498c0,248.56,194.05,456.52,441.82,473.49,10.33.7,21.35,1,32.72,1h1.23A488.88,488.88,0,0,0,564.92,968c5-.7,9.72-1.4,14.53-2.27a459.87,459.87,0,0,0,50.22-11.38q7.35-2.1,14.43-4.46c12.95-4.11,24.85-8.48,36.49-13.3,4.63-2,9.09-3.93,13.64-6l3.68-1.58c3.59-1.66,7.26-3.41,10.85-5.16a463,463,0,0,0,43-24.15l7.44-4.81q6.82-4.45,13.65-9.19a471.39,471.39,0,0,0,45.49-36.74v-.09l5.6-5.16c.26-.26.53-.44.7-.61l3.41-3.24c3-2.8,5.87-5.69,8.66-8.57a474.8,474.8,0,0,0,48.65-57.75l3.15-4.72c4.72-6.65,8.4-12.16,11.64-17.33a471.39,471.39,0,0,0,52.14-113l.79-2.63c3.58-11.55,6.73-23.79,9.53-36.48l.35-1.4a480,480,0,0,0-3.06-213.13ZM785.84,556.31v2.36L785,560.6a291,291,0,0,1-58.88,122c-2.19,2.71-4.55,5.51-7.17,8.57V701.9l-10.07.08a288.84,288.84,0,0,1-53.28,43.31c-3.93,2.54-8.31,5.25-13.12,7.87A292.66,292.66,0,0,1,584.7,778c-4.55,1.4-8.75,2.54-13.3,3.68a296.3,296.3,0,0,1-71.31,9h-1c-9.09,0-18.54-.44-28-1.31-90.12-8.58-169.91-57.4-218.9-134A291.78,291.78,0,0,1,206.3,498c0-136.66,92.83-253.81,225.64-284.87a289.39,289.39,0,0,1,59.23-7.7c2.54-.09,5.25-.09,7.87-.09A287.69,287.69,0,0,1,571,214.23c1.84.43,3.94,1,5.95,1.57,9.27,2.54,18.72,5.69,27.65,9.1a291.93,291.93,0,0,1,37.79,17.85c1.75,1,3.76,2.19,5.86,3.41a292.87,292.87,0,0,1,65.53,52.93c2.45,2.63,4.9,5.34,7.18,8.05a292.68,292.68,0,0,1,63.87,127.47l.87,1.75.09,2.45a295.21,295.21,0,0,1,.09,117.5Z" transform="translate(-7 -6)" style="fill:url(#linear-gradient-2)"/></g><path d="M598.26,241.26a274,274,0,0,0-26.34-8.66c-1.75-.53-3.5-1-5.33-1.4a269.25,269.25,0,0,0-67.11-8.4H499c-2.45,0-4.9,0-7.35.09A270.94,270.94,0,0,0,436,230.15c20.13-161.33-133.77-180.49-138.58-181A489.56,489.56,0,0,1,499,6h.18a483.36,483.36,0,0,1,67.1,4.64,18.06,18.06,0,0,1,2.45.35c3,.43,6,.87,9,1.48Z" transform="translate(-7 -6)" style="opacity:0.30000000000000004;mix-blend-mode:overlay"/><path d="M697.82,688.16l-4.29,108.22-6.21,156.26c-12.33,5.16-24.84,9.71-37.71,13.83-5,1.66-10.06,3.23-15.13,4.63a464.21,464.21,0,0,1-51.8,11.73c-5.07,1-10.14,1.75-15.31,2.45a499.22,499.22,0,0,1-67.1,4.72H499c-11.37,0-22.74-.35-33.94-1.14C265.18,975.21,98,842.14,34.47,660.51A492.62,492.62,0,0,1,7,498S58.88,721.06,266.93,645.9C311.38,715.46,386.18,763.75,472.62,772c7.79.7,15.66,1.14,23.71,1.14.88.09,1.84.09,2.71.09h1a278.16,278.16,0,0,0,67.19-8.49c4.2-1.05,8.22-2.18,12.33-3.41a273.67,273.67,0,0,0,54.69-23.62c4.11-2.19,8-4.64,12-7.18,1.4-.87,2.71-1.75,4-2.62A265.34,265.34,0,0,0,697.82,688.16Z" transform="translate(-7 -6)" style="opacity:0.30000000000000004;mix-blend-mode:overlay"/><path d="M693.53,796.38l-6.21,156.26c-12.33,5.16-24.84,9.71-37.71,13.83-5,1.66-10.06,3.23-15.13,4.63a464.21,464.21,0,0,1-51.8,11.73c-5.07,1-10.14,1.75-15.31,2.45a499.22,499.22,0,0,1-67.1,4.72H499c-11.37,0-22.74-.35-33.94-1.14C265.18,975.21,98,842.14,34.47,660.51c131.85,194.67,330,164.13,461.86,112.6.88.09,1.84.09,2.71.09h1a278.16,278.16,0,0,0,67.19-8.49c4.2-1.05,8.22-2.18,12.33-3.41a273.67,273.67,0,0,0,54.69-23.62c4.11-2.19,8-4.64,12-7.18,1.4-.87,2.71-1.75,4-2.62C661.25,745,676.65,769.26,693.53,796.38Z" transform="translate(-7 -6)" style="opacity:0.30000000000000004;mix-blend-mode:overlay"/><path d="M991,498a492,492,0,0,1-10.94,103.58v.09c-2.88,13.3-6.3,26.51-10.23,39.29l-.26-287.06c2.71,8.84,5.16,17.67,7.34,26.68v.09A493.87,493.87,0,0,1,991,498Z" transform="translate(-7 -6)" style="fill:url(#linear-gradient-3)"/><path d="M969.83,640.92V641a484.78,484.78,0,0,1-54.77,119.6c-3.85,6.21-8,12.25-12.25,18.29l-.52-562.74c1.74,2.45,3.41,4.9,5.07,7.35a489.86,489.86,0,0,1,62.21,130.27v.09Z" transform="translate(-7 -6)" style="fill:url(#linear-gradient-4)"/><path d="M902.81,778.89v.17l-.09.09a488.61,488.61,0,0,1-53.45,64.3c-4.38,4.47-8.84,8.84-13.39,13a.09.09,0,0,1-.09.09L835,138.63c.08,0,.08.09.08.09,1.49,1.31,2.89,2.63,4.2,3.94A491.83,491.83,0,0,1,902.11,216c.09.08.18.08.18.17Z" transform="translate(-7 -6)" style="fill:url(#linear-gradient-5)"/><path d="M835.79,856.58A492.33,492.33,0,0,1,782.86,900c-4.64,3.24-9.36,6.48-14.08,9.54l-.44-355v-.08a276.81,276.81,0,0,0-.09-113.74v-.09l-.44-354.77c1.14.7,2.28,1.49,3.41,2.27A487.77,487.77,0,0,1,835,138.63Z" transform="translate(-7 -6)" style="fill:url(#linear-gradient-6)"/><path d="M707.44,318.34c-2.09-2.54-4.28-5-6.47-7.35l-.26-261.86c1,.44,2,.88,3,1.32a484.08,484.08,0,0,1,64.05,35.43h.08l.44,354.77c0-.09-.09-.17-.09-.26A273.6,273.6,0,0,0,707.44,318.34Z" transform="translate(-7 -6)" style="fill:url(#linear-gradient-7)"/><path d="M768.78,909.51a.09.09,0,0,1-.09.09,491.76,491.76,0,0,1-52.32,29.92c-4.9,2.36-9.8,4.72-14.7,6.91h-.09l-.26-261.95a.08.08,0,0,0,.09-.08c3.85-4.2,7.61-8.49,11.11-12.86A272.46,272.46,0,0,0,768.25,555a.78.78,0,0,0,.09-.44Z" transform="translate(-7 -6)" style="fill:url(#linear-gradient-8)"/><path d="M701,311a278.55,278.55,0,0,0-61.5-49.69c-1.93-1.14-3.85-2.28-5.78-3.33l-.26-233.42,2.62.78a496.69,496.69,0,0,1,64.66,23.8Z" transform="translate(-7 -6)" style="fill:url(#linear-gradient-9)"/><path d="M701.58,946.43a459.4,459.4,0,0,1-52,20c-5,1.66-10.06,3.23-15.13,4.63l-.26-233.42c4.11-2.19,8-4.64,12-7.18a272.26,272.26,0,0,0,55.12-46Z" transform="translate(-7 -6)" style="fill:url(#linear-gradient-10)"/><path d="M633.69,258a271.39,271.39,0,0,0-61.77-25.37c-1.75-.53-3.5-1-5.33-1.4l-.27-220.56a18.06,18.06,0,0,1,2.45.35,489.69,489.69,0,0,1,64.66,13.56Z" transform="translate(-7 -6)" style="fill:url(#linear-gradient-11)"/><path d="M634.48,971.1a464.21,464.21,0,0,1-51.8,11.73c-5.07,1-10.14,1.75-15.31,2.45l-.17-220.57c4.2-1.05,8.22-2.18,12.33-3.41a273.67,273.67,0,0,0,54.69-23.62Z" transform="translate(-7 -6)" style="fill:url(#linear-gradient-12)"/><path d="M566.59,231.2a269.25,269.25,0,0,0-67.11-8.4L499.22,6a483.36,483.36,0,0,1,67.1,4.64Z" transform="translate(-7 -6)" style="fill:url(#linear-gradient-13)"/><path d="M567.37,985.28a499.22,499.22,0,0,1-67.1,4.72L500,773.2a278.16,278.16,0,0,0,67.19-8.49Z" transform="translate(-7 -6)" style="fill:url(#linear-gradient-14)"/><path d="M571.92,232.6c-1.75-.53-3.5-1-5.33-1.4l-.27-220.56a18.06,18.06,0,0,1,2.45.35Z" transform="translate(-7 -6)" style="opacity:0.5;mix-blend-mode:overlay"/><path d="M582.68,982.83c-5.07,1-10.14,1.75-15.31,2.45l-.17-220.57c4.2-1.05,8.22-2.18,12.33-3.41Z" transform="translate(-7 -6)" style="opacity:0.5;mix-blend-mode:overlay"/><path d="M639.47,261.3c-1.93-1.14-3.85-2.28-5.78-3.33l-.26-233.42,2.62.78Z" transform="translate(-7 -6)" style="opacity:0.5;mix-blend-mode:overlay"/><path d="M649.61,966.47c-5,1.66-10.06,3.23-15.13,4.63l-.26-233.42c4.11-2.19,8-4.64,12-7.18Z" transform="translate(-7 -6)" style="opacity:0.5;mix-blend-mode:overlay"/><path d="M707.44,318.34c-2.09-2.54-4.28-5-6.47-7.35l-.26-261.86c1,.44,2,.88,3,1.32Z" transform="translate(-7 -6)" style="opacity:0.5;mix-blend-mode:overlay"/><path d="M716.37,939.52c-4.9,2.36-9.8,4.72-14.7,6.91l-.26-262c3.85-4.2,7.61-8.49,11.11-12.86Z" transform="translate(-7 -6)" style="opacity:0.5;mix-blend-mode:overlay"/><path d="M782.86,900c-4.64,3.24-9.36,6.48-14.08,9.54a.09.09,0,0,1-.09.09L768.25,555a.78.78,0,0,0,.09-.44v-.08a276.81,276.81,0,0,0-.09-113.74v-.09c0-.09-.09-.17-.09-.26l-.43-354.51h.08c1.14.7,2.28,1.49,3.41,2.27Z" transform="translate(-7 -6)" style="opacity:0.5;mix-blend-mode:overlay"/><path d="M849.27,843.45c-4.38,4.47-8.84,8.84-13.39,13l-.79-717.77c1.49,1.31,2.89,2.63,4.2,3.94Z" transform="translate(-7 -6)" style="opacity:0.5;mix-blend-mode:overlay"/><path d="M915.06,760.6c-3.85,6.21-8,12.25-12.25,18.29v.17l-.09.09L902.11,216c.09.08.18.08.18.17,1.74,2.45,3.41,4.9,5.07,7.35Z" transform="translate(-7 -6)" style="opacity:0.5;mix-blend-mode:overlay"/><path d="M980.06,601.63c-2.88,13.3-6.3,26.51-10.23,39.29l-.26-287.06c2.71,8.84,5.16,17.67,7.34,26.68v.09l3.15,220.91Z" transform="translate(-7 -6)" style="opacity:0.5;mix-blend-mode:overlay"/><path d="M499,222.8c-2.45,0-4.9,0-7.35.09L499.22,6l.26,216.8Z" transform="translate(-7 -6)" style="opacity:0.7000000000000001;mix-blend-mode:overlay"/><path d="M500.27,990H499c-11.37,0-22.74-.35-33.94-1.14L472.62,772c8.66.79,17.5,1.23,26.42,1.23h1Z" transform="translate(-7 -6)" style="opacity:0.7000000000000001;mix-blend-mode:overlay"/></g></g></svg>